<svg width="100" height="100" viewBox="0 0 100 100" fill="none" xmlns="http://www.w3.org/2000/svg">
<path fill-rule="evenodd" clip-rule="evenodd" d="M6.5 11C3.73858 11 1.5 8.76142 1.5 6C1.5 3.23858 3.73858 1 6.5 1H94C96.0223 1 97.8455 2.21821 98.6194 4.08658C99.3933 5.95495 98.9655 8.10554 97.5355 9.53553L10.0355 97.0355C8.08291 98.9882 4.91709 98.9882 2.96447 97.0355C1.01184 95.0829 1.01184 91.9171 2.96447 89.9645L81.9289 11H6.5ZM95.9134 45.1306C97.7818 45.9045 99 47.7277 99 49.75V93.5C99 96.2614 96.7614 98.5 94 98.5C91.2386 98.5 89 96.2614 89 93.5V61.8211L53.7855 97.0355C51.8329 98.9882 48.6671 98.9882 46.7145 97.0355C44.7618 95.0829 44.7618 91.9171 46.7145 89.9645L90.4645 46.2145C91.8945 44.7845 94.045 44.3567 95.9134 45.1306Z" fill="currentColor"/>
</svg>
