<svg width="1em" height="1em" viewBox="0 0 36 36" fill="none" xmlns="http://www.w3.org/2000/svg">
<path d="M31.497 4.5V7.5C31.497 21.9411 23.4382 28.5 13.4971 28.5L7.86115 28.4999C7.6179 29.868 7.49707 31.3605 7.49707 33H4.49707C4.49707 30.956 4.67064 29.0995 5.01571 27.4023C4.66995 25.4611 4.49707 22.8264 4.49707 19.5C4.49707 11.2157 11.2128 4.5 19.497 4.5C22.497 4.5 25.497 6 31.497 4.5ZM19.497 7.5C12.8697 7.5 7.49707 12.8726 7.49707 19.5C7.49707 20.0436 7.50187 20.5667 7.51138 21.0689C9.39297 18.1026 12.1485 15.7572 15.7528 13.6976L17.2413 16.3023C12.9589 18.7494 10.1183 21.5302 8.65993 25.4997L13.4971 25.5C22.5198 25.5 28.3038 19.5403 28.4923 8.08149C26.4343 8.2817 24.5221 8.154 22.1631 7.80013C20.4364 7.54113 20.0982 7.5 19.497 7.5Z" fill="currentColor"/>
</svg>
